HIERARCHY
ROOT Hips
{
	OFFSET 0.000000 0.000000 0.000000
	CHANNELS 6 Xposition Yposition Zposition Yrotation Xrotation Zrotation
	JOINT Chest
	{
		OFFSET 0.000000 -0.009281 11.569106
		CHANNELS 3 Yrotation Xrotation Zrotation
		JOINT Chest2
		{
			OFFSET -0.000000 0.016865 9.269641
			CHANNELS 3 Yrotation Xrotation Zrotation
			JOINT Chest3
			{
				OFFSET -0.000000 0.000001 8.374491
				CHANNELS 3 Yrotation Xrotation Zrotation
				JOINT Chest4
				{
					OFFSET -0.000000 0.000001 8.374493
					CHANNELS 3 Yrotation Xrotation Zrotation
					JOINT Neck
					{
						OFFSET -0.000000 0.000002 12.152554
						CHANNELS 3 Yrotation Xrotation Zrotation
						JOINT Head
						{
							OFFSET -0.000000 0.040101 7.802319
							CHANNELS 3 Yrotation Xrotation Zrotation
							End Site
							{
								OFFSET -0.000000 0.020947 14.853096
							}
						}
					}
					JOINT RightCollar
					{
						OFFSET 2.894404 0.000001 6.791374
						CHANNELS 3 Yrotation Xrotation Zrotation
						JOINT RightShoulder
						{
							OFFSET 13.574684 0.000001 0.000000
							CHANNELS 3 Yrotation Xrotation Zrotation
							JOINT RightElbow
							{
								OFFSET 23.923903 0.000002 0.000000
								CHANNELS 3 Yrotation Xrotation Zrotation
								JOINT RightWrist
								{
									OFFSET 19.846718 0.012767 0.000000
									CHANNELS 3 Yrotation Xrotation Zrotation
									End Site
									{
										OFFSET 14.973145 0.000001 0.000000
									}
								}
							}
						}
					}
					JOINT LeftCollar
					{
						OFFSET -2.894404 0.000001 6.791374
						CHANNELS 3 Yrotation Xrotation Zrotation
						JOINT LeftShoulder
						{
							OFFSET -13.574684 -0.000001 0.000000
							CHANNELS 3 Yrotation Xrotation Zrotation
							JOINT LeftElbow
							{
								OFFSET -23.923903 -0.000002 0.000000
								CHANNELS 3 Yrotation Xrotation Zrotation
								JOINT LeftWrist
								{
									OFFSET -19.846718 0.012763 0.000000
									CHANNELS 3 Yrotation Xrotation Zrotation
									End Site
									{
										OFFSET -14.973145 -0.000001 0.000000
									}
								}
							}
						}
					}
				}
			}
		}
	}
	JOINT RightHip
	{
		OFFSET 9.469263 0.004643 0.045487
		CHANNELS 3 Yrotation Xrotation Zrotation
		JOINT RightKnee
		{
			OFFSET 0.000000 0.002661 -40.478676
			CHANNELS 3 Yrotation Xrotation Zrotation
			JOINT RightAnkle
			{
				OFFSET 0.000000 0.049106 -35.224068
				CHANNELS 3 Yrotation Xrotation Zrotation
				JOINT RightToe
				{
					OFFSET -0.000001 12.539529 -6.151390
					CHANNELS 3 Yrotation Xrotation Zrotation
					End Site
					{
						OFFSET -0.000001 5.044994 -1.291870
					}
				}
			}
		}
	}
	JOINT LeftHip
	{
		OFFSET -9.469263 0.004641 0.045487
		CHANNELS 3 Yrotation Xrotation Zrotation
		JOINT LeftKnee
		{
			OFFSET 0.000000 0.002661 -40.478676
			CHANNELS 3 Yrotation Xrotation Zrotation
			JOINT LeftAnkle
			{
				OFFSET 0.000000 0.049106 -35.224068
				CHANNELS 3 Yrotation Xrotation Zrotation
				JOINT LeftToe
				{
					OFFSET -0.000001 12.539529 -6.151390
					CHANNELS 3 Yrotation Xrotation Zrotation
					End Site
					{
						OFFSET -0.000001 5.044994 -1.291870
					}
				}
			}
		}
	}
}
MOTION
Frames: 9
Frame Time: 0.016667
12.171677 5.570160 82.903366 -6.030440 -2.077331 -107.449920 9.995701 -0.626315 -4.757526 4.437422 -0.379126 -2.099217 4.437422 -0.379125 -2.099217 3.326798 -0.299609 -1.571752 -6.769660 -17.133962 17.670435 -6.513434 4.078268 30.313722 6.768691 5.864138 -6.115257 66.739752 36.608530 20.728632 56.277152 35.347370 70.826364 9.681044 37.550539 23.526269 -7.217055 0.850749 -10.781110 -74.887833 43.638393 -65.232637 -47.450864 39.280800 -61.923499 52.125374 48.769248 8.821405 -2.781331 -10.783420 2.510560 -0.205442 -2.576663 0.493761 1.969005 6.494066 -2.308506 -0.007092 0.018985 -0.003755 -3.590239 -11.501474 1.751193 0.296412 -0.339097 3.716077 1.044208 4.934002 -0.129347 -0.002195 -0.037225 0.003228 
12.151006 5.594764 82.906761 -6.037087 -2.076089 -107.362883 9.976694 -0.616909 -4.768193 4.429357 -0.375246 -2.106054 4.429358 -0.375245 -2.106053 3.320759 -0.296722 -1.576910 -6.711353 -17.113051 17.656447 -6.407774 4.106817 30.309825 6.725093 5.811856 -6.091512 67.199820 36.892393 21.264662 56.701696 35.704237 71.366126 11.141107 37.734715 24.684954 -7.217604 0.846680 -10.773515 -74.833083 43.538406 -65.233081 -47.447275 39.252824 -61.946428 52.110518 48.874925 8.843943 -2.790763 -10.766124 2.529132 -0.184516 -2.604243 0.429390 1.963943 6.479759 -2.325240 0.000664 0.026557 -0.004608 -3.587727 -11.484126 1.733287 0.296080 -0.336550 3.682715 1.047118 4.910482 -0.159366 0.005867 -0.036547 0.003545 
12.126898 5.620604 82.910393 -6.039121 -2.075388 -107.280422 9.952874 -0.607850 -4.776937 4.418770 -0.371125 -2.111965 4.418773 -0.371126 -2.111963 3.312834 -0.293639 -1.581379 -6.644904 -17.080508 17.641093 -6.285555 4.155201 30.307199 6.676391 5.803916 -6.078164 67.568609 37.132433 21.798038 56.941330 36.292217 71.691530 11.738454 38.280376 25.716222 -7.221001 0.840643 -10.768516 -74.757001 43.449979 -65.224099 -47.444560 39.211904 -61.962390 51.943059 48.939825 8.771212 -2.796427 -10.742301 2.540501 -0.166487 -2.630412 0.372644 1.957537 6.461931 -2.341095 0.008163 0.032840 -0.004726 -3.585609 -11.460885 1.721334 0.298732 -0.332741 3.657190 1.046580 4.883120 -0.198381 0.013394 -0.035221 0.004325 
12.102916 5.645776 82.913841 -6.039958 -2.074649 -107.207940 9.922180 -0.604802 -4.783975 4.406777 -0.367931 -2.117312 4.406777 -0.367929 -2.117317 3.303842 -0.291238 -1.585426 -6.580478 -17.038631 17.628626 -6.164308 4.220717 30.309996 6.640203 5.791799 -6.058013 67.851898 37.365755 22.306819 57.019539 37.011067 71.776313 11.613677 39.255515 26.574422 -7.225287 0.848167 -10.757870 -74.711218 43.382155 -65.236264 -47.409853 39.167576 -61.929619 51.632767 48.974328 8.660533 -2.797234 -10.724989 2.526934 -0.157057 -2.646748 0.338927 1.953383 6.449761 -2.360250 0.013384 0.030762 -0.005701 -3.587690 -11.436292 1.712558 0.302249 -0.326347 3.640941 1.047796 4.865873 -0.237496 0.019296 -0.046207 0.005867 
12.078367 5.665104 82.917038 -6.036081 -2.079803 -107.152411 9.896210 -0.600458 -4.790578 4.395793 -0.365351 -2.121289 4.395793 -0.365352 -2.121289 3.295612 -0.289295 -1.588430 -6.529153 -16.993159 17.619270 -6.065255 4.294983 30.314333 6.623355 5.779184 -6.032467 68.003884 37.567840 22.713854 57.086448 37.784972 71.673608 10.954827 40.402109 27.266257 -7.232472 0.850327 -10.743287 -74.676446 43.344882 -65.260716 -47.382474 39.127347 -61.882696 51.226794 49.005303 8.452720 -2.791400 -10.708475 2.491883 -0.152850 -2.647025 0.334789 1.954653 6.422281 -2.369319 0.014659 0.032468 -0.004571 -3.578595 -11.417003 1.718813 0.302679 -0.309714 3.615736 1.046711 4.838309 -0.267413 0.023008 -0.048636 0.006580 
12.052912 5.681376 82.920593 -6.034471 -2.086320 -107.117385 9.872035 -0.596213 -4.801816 4.385802 -0.363766 -2.127236 4.385802 -0.363766 -2.127237 3.288124 -0.288113 -1.592909 -6.495950 -16.950064 17.620449 -5.996287 4.367261 30.331668 6.626850 5.804702 -5.990382 68.040514 37.713221 22.970377 56.886136 38.508258 71.286302 9.767032 41.696143 27.763457 -7.244157 0.838259 -10.722152 -74.617959 43.335279 -65.258762 -47.373543 39.091266 -61.853531 50.824660 49.088716 8.192785 -2.788827 -10.693886 2.457991 -0.143338 -2.642275 0.340952 1.954991 6.394414 -2.378216 0.012130 0.031022 -0.005047 -3.570789 -11.402517 1.726636 0.303472 -0.291135 3.592805 1.046311 4.810460 -0.283780 0.024369 -0.049654 0.007563 
12.026268 5.693161 82.924179 -6.028022 -2.095176 -107.111020 9.849873 -0.592535 -4.810797 4.376394 -0.362554 -2.131952 4.376393 -0.362554 -2.131951 3.281068 -0.287205 -1.596456 -6.475797 -16.910830 17.627620 -5.949887 4.434340 30.355236 6.652033 5.877087 -5.945292 67.953135 37.779091 23.044613 56.470297 39.148216 70.649680 8.099794 43.004254 27.864938 -7.248519 0.815882 -10.703799 -74.541351 43.348222 -65.227699 -47.370972 39.065165 -61.844904 50.420071 49.158002 7.882063 -2.781831 -10.672696 2.442254 -0.141948 -2.632729 0.344917 1.962181 6.363587 -2.374177 0.007007 0.027799 -0.004698 -3.563474 -11.388312 1.735870 0.308263 -0.267843 3.589067 1.043836 4.782507 -0.294844 0.023007 -0.049783 0.007963 
11.997420 5.701961 82.927231 -6.017208 -2.103337 -107.127788 9.828232 -0.589832 -4.815268 4.366886 -0.361627 -2.134310 4.366884 -0.361628 -2.134308 3.273938 -0.286494 -1.598235 -6.466663 -16.880579 17.637469 -5.924413 4.486833 30.379169 6.673321 5.952733 -5.928769 67.787995 37.753054 22.978778 56.086068 39.720852 69.918495 6.028794 44.099728 27.282439 -7.244700 0.793976 -10.696812 -74.479279 43.387926 -65.192605 -47.372047 39.046136 -61.848688 50.085757 49.250530 7.633947 -2.773580 -10.641629 2.448855 -0.144311 -2.626970 0.334598 1.974478 6.336384 -2.355924 -0.000813 0.021775 -0.005230 -3.554205 -11.368474 1.735413 0.306885 -0.249238 3.594383 1.044980 4.758674 -0.288376 0.020614 -0.049801 0.008756 
11.966435 5.707930 82.930122 -6.002370 -2.113767 -107.167109 9.806640 -0.589232 -4.812878 4.357531 -0.361440 -2.132918 4.357532 -0.361442 -2.132918 3.266927 -0.286311 -1.597200 -6.464004 -16.859822 17.645433 -5.913109 4.523415 30.396586 6.695960 6.039760 -5.928079 67.551971 37.673278 22.770855 55.701695 40.160262 69.104521 3.889951 44.544639 26.021965 -7.242485 0.790874 -10.689082 -74.439978 43.427620 -65.161822 -47.401366 39.039592 -61.885673 49.809243 49.230217 7.430293 -2.760791 -10.603436 2.466834 -0.154910 -2.619913 0.321721 1.994231 6.307825 -2.321506 -0.009851 0.014507 -0.004862 -3.543785 -11.344397 1.726597 0.305612 -0.234060 3.609924 1.047907 4.737928 -0.262867 0.016518 -0.049797 0.008606 
